<?xml version="1.0" encoding="UTF-8" standalone="no"?>
<!DOCTYPE svg PUBLIC "-//W3C//DTD SVG 1.1//EN"
 "http://www.w3.org/Graphics/SVG/1.1/DTD/svg11.dtd">
<!-- Generated by graphviz version 5.0.0 (20220707.1540)
 -->
<!-- Title: dependencies Pages: 1 -->
<svg width="172pt" height="247pt"
 viewBox="0.00 0.00 172.00 246.80" xmlns="http://www.w3.org/2000/svg" xmlns:xlink="http://www.w3.org/1999/xlink">
<g id="graph0" class="graph" transform="scale(1 1) rotate(0) translate(4 242.8)">
<title>dependencies</title>
<polygon fill="white" stroke="transparent" points="-4,4 -4,-242.8 168,-242.8 168,4 -4,4"/>
<text text-anchor="middle" x="82" y="-8.2" font-family="sans-serif" font-size="14.00">dependencies</text>
<g id="clust1" class="cluster">
<title>cluster_AuthRoutingModule</title>
<polygon fill="none" stroke="black" stroke-dasharray="1,5" points="8,-32.8 8,-230.8 156,-230.8 156,-32.8 8,-32.8"/>
</g>
<g id="clust3" class="cluster">
<title>cluster_AuthRoutingModule_imports</title>
<polygon fill="none" stroke="black" points="25,-40.8 25,-92.8 139,-92.8 139,-40.8 25,-40.8"/>
</g>
<g id="clust4" class="cluster">
<title>cluster_AuthRoutingModule_exports</title>
<polygon fill="none" stroke="black" points="23,-170.8 23,-222.8 141,-222.8 141,-170.8 23,-170.8"/>
</g>
<!-- RouterModule -->
<g id="node1" class="node">
<title>RouterModule</title>
<polygon fill="#8dd3c7" stroke="black" points="130.66,-84.8 127.66,-88.8 106.66,-88.8 103.66,-84.8 33.34,-84.8 33.34,-48.8 130.66,-48.8 130.66,-84.8"/>
<text text-anchor="middle" x="82" y="-62.6" font-family="Times,serif" font-size="14.00">RouterModule</text>
</g>
<!-- AuthRoutingModule -->
<g id="node2" class="node">
<title>AuthRoutingModule</title>
<polygon fill="#8dd3c7" stroke="black" points="148.17,-149.8 145.17,-153.8 124.17,-153.8 121.17,-149.8 15.83,-149.8 15.83,-113.8 148.17,-113.8 148.17,-149.8"/>
<text text-anchor="middle" x="82" y="-127.6" font-family="Times,serif" font-size="14.00">AuthRoutingModule</text>
</g>
<!-- RouterModule&#45;&gt;AuthRoutingModule -->
<g id="edge1" class="edge">
<title>RouterModule&#45;&gt;AuthRoutingModule</title>
<path fill="none" stroke="black" d="M82,-84.91C82,-84.91 82,-103.79 82,-103.79"/>
<polygon fill="black" stroke="black" points="78.5,-103.79 82,-113.79 85.5,-103.79 78.5,-103.79"/>
</g>
<!-- RouterModule  -->
<g id="node3" class="node">
<title>RouterModule </title>
<polygon fill="#fb8072" stroke="black" points="132.66,-214.8 31.34,-214.8 31.34,-178.8 132.66,-178.8 132.66,-214.8"/>
<text text-anchor="middle" x="82" y="-192.6" font-family="Times,serif" font-size="14.00">RouterModule </text>
</g>
<!-- AuthRoutingModule&#45;&gt;RouterModule  -->
<g id="edge2" class="edge">
<title>AuthRoutingModule&#45;&gt;RouterModule </title>
<path fill="none" stroke="black" stroke-dasharray="5,2" d="M82,-149.91C82,-149.91 82,-168.79 82,-168.79"/>
<polygon fill="black" stroke="black" points="78.5,-168.79 82,-178.79 85.5,-168.79 78.5,-168.79"/>
</g>
</g>
</svg>
