<?xml version="1.0" encoding="UTF-8" standalone="no"?>
<!DOCTYPE svg PUBLIC "-//W3C//DTD SVG 1.1//EN"
 "http://www.w3.org/Graphics/SVG/1.1/DTD/svg11.dtd">
<!-- Generated by graphviz version 5.0.0 (20220707.1540)
 -->
<!-- Title: dependencies Pages: 1 -->
<svg width="436pt" height="174pt"
 viewBox="0.00 0.00 436.00 173.80" xmlns="http://www.w3.org/2000/svg" xmlns:xlink="http://www.w3.org/1999/xlink">
<g id="graph0" class="graph" transform="scale(1 1) rotate(0) translate(4 169.8)">
<title>dependencies</title>
<polygon fill="white" stroke="transparent" points="-4,4 -4,-169.8 432,-169.8 432,4 -4,4"/>
<text text-anchor="middle" x="214" y="-8.2" font-family="sans-serif" font-size="14.00">dependencies</text>
<g id="clust1" class="cluster">
<title>cluster_ProductTypeModule</title>
<polygon fill="none" stroke="black" stroke-dasharray="1,5" points="8,-32.8 8,-157.8 420,-157.8 420,-32.8 8,-32.8"/>
</g>
<g id="clust4" class="cluster">
<title>cluster_ProductTypeModule_imports</title>
<polygon fill="none" stroke="black" points="220,-40.8 220,-92.8 412,-92.8 412,-40.8 220,-40.8"/>
</g>
<g id="clust2" class="cluster">
<title>cluster_ProductTypeModule_declarations</title>
<polygon fill="none" stroke="black" points="16,-40.8 16,-92.8 212,-92.8 212,-40.8 16,-40.8"/>
</g>
<!-- ProducttypeIndexComponent -->
<g id="node1" class="node">
<title>ProducttypeIndexComponent</title>
<polygon fill="#ffffb3" stroke="black" points="204.36,-84.8 23.64,-84.8 23.64,-48.8 204.36,-48.8 204.36,-84.8"/>
<text text-anchor="middle" x="114" y="-62.6" font-family="Times,serif" font-size="14.00">ProducttypeIndexComponent</text>
</g>
<!-- ProductTypeModule -->
<g id="node2" class="node">
<title>ProductTypeModule</title>
<polygon fill="#8dd3c7" stroke="black" points="280.87,-149.8 277.87,-153.8 256.87,-153.8 253.87,-149.8 149.13,-149.8 149.13,-113.8 280.87,-113.8 280.87,-149.8"/>
<text text-anchor="middle" x="215" y="-127.6" font-family="Times,serif" font-size="14.00">ProductTypeModule</text>
</g>
<!-- ProducttypeIndexComponent&#45;&gt;ProductTypeModule -->
<g id="edge1" class="edge">
<title>ProducttypeIndexComponent&#45;&gt;ProductTypeModule</title>
<path fill="none" stroke="black" d="M176.75,-84.91C176.75,-84.91 176.75,-103.79 176.75,-103.79"/>
<polygon fill="black" stroke="black" points="173.25,-103.79 176.75,-113.79 180.25,-103.79 173.25,-103.79"/>
</g>
<!-- ProductTypeRoutingModule -->
<g id="node3" class="node">
<title>ProductTypeRoutingModule</title>
<polygon fill="#8dd3c7" stroke="black" points="404.49,-84.8 401.49,-88.8 380.49,-88.8 377.49,-84.8 227.51,-84.8 227.51,-48.8 404.49,-48.8 404.49,-84.8"/>
<text text-anchor="middle" x="316" y="-62.6" font-family="Times,serif" font-size="14.00">ProductTypeRoutingModule</text>
</g>
<!-- ProductTypeRoutingModule&#45;&gt;ProductTypeModule -->
<g id="edge2" class="edge">
<title>ProductTypeRoutingModule&#45;&gt;ProductTypeModule</title>
<path fill="none" stroke="black" d="M254.22,-84.91C254.22,-84.91 254.22,-103.79 254.22,-103.79"/>
<polygon fill="black" stroke="black" points="250.72,-103.79 254.22,-113.79 257.72,-103.79 250.72,-103.79"/>
</g>
</g>
</svg>
