<?xml version="1.0" encoding="UTF-8" standalone="no"?>
<!DOCTYPE svg PUBLIC "-//W3C//DTD SVG 1.1//EN"
 "http://www.w3.org/Graphics/SVG/1.1/DTD/svg11.dtd">
<!-- Generated by graphviz version 5.0.0 (20220707.1540)
 -->
<!-- Title: dependencies Pages: 1 -->
<svg width="662pt" height="174pt"
 viewBox="0.00 0.00 662.00 173.80" xmlns="http://www.w3.org/2000/svg" xmlns:xlink="http://www.w3.org/1999/xlink">
<g id="graph0" class="graph" transform="scale(1 1) rotate(0) translate(4 169.8)">
<title>dependencies</title>
<polygon fill="white" stroke="transparent" points="-4,4 -4,-169.8 658,-169.8 658,4 -4,4"/>
<text text-anchor="middle" x="327" y="-8.2" font-family="sans-serif" font-size="14.00">dependencies</text>
<g id="clust1" class="cluster">
<title>cluster_DashboardModule</title>
<polygon fill="none" stroke="black" stroke-dasharray="1,5" points="8,-32.8 8,-157.8 646,-157.8 646,-32.8 8,-32.8"/>
</g>
<g id="clust2" class="cluster">
<title>cluster_DashboardModule_declarations</title>
<polygon fill="none" stroke="black" points="206,-40.8 206,-92.8 638,-92.8 638,-40.8 206,-40.8"/>
</g>
<g id="clust6" class="cluster">
<title>cluster_DashboardModule_imports</title>
<polygon fill="none" stroke="black" points="16,-40.8 16,-92.8 198,-92.8 198,-40.8 16,-40.8"/>
</g>
<!-- HeaderComponent -->
<g id="node1" class="node">
<title>HeaderComponent</title>
<polygon fill="#ffffb3" stroke="black" points="629.75,-84.8 508.25,-84.8 508.25,-48.8 629.75,-48.8 629.75,-84.8"/>
<text text-anchor="middle" x="569" y="-62.6" font-family="Times,serif" font-size="14.00">HeaderComponent</text>
</g>
<!-- DashboardModule -->
<g id="node4" class="node">
<title>DashboardModule</title>
<polygon fill="#8dd3c7" stroke="black" points="416.2,-149.8 413.2,-153.8 392.2,-153.8 389.2,-149.8 295.8,-149.8 295.8,-113.8 416.2,-113.8 416.2,-149.8"/>
<text text-anchor="middle" x="356" y="-127.6" font-family="Times,serif" font-size="14.00">DashboardModule</text>
</g>
<!-- HeaderComponent&#45;&gt;DashboardModule -->
<g id="edge1" class="edge">
<title>HeaderComponent&#45;&gt;DashboardModule</title>
<path fill="none" stroke="black" d="M569,-84.91C569,-104.14 569,-131.8 569,-131.8 569,-131.8 426.18,-131.8 426.18,-131.8"/>
<polygon fill="black" stroke="black" points="426.18,-128.3 416.18,-131.8 426.18,-135.3 426.18,-128.3"/>
</g>
<!-- LayoutComponent -->
<g id="node2" class="node">
<title>LayoutComponent</title>
<polygon fill="#ffffb3" stroke="black" points="490.49,-84.8 369.51,-84.8 369.51,-48.8 490.49,-48.8 490.49,-84.8"/>
<text text-anchor="middle" x="430" y="-62.6" font-family="Times,serif" font-size="14.00">LayoutComponent</text>
</g>
<!-- LayoutComponent&#45;&gt;DashboardModule -->
<g id="edge2" class="edge">
<title>LayoutComponent&#45;&gt;DashboardModule</title>
<path fill="none" stroke="black" d="M392.8,-84.91C392.8,-84.91 392.8,-103.79 392.8,-103.79"/>
<polygon fill="black" stroke="black" points="389.3,-103.79 392.8,-113.79 396.3,-103.79 389.3,-103.79"/>
</g>
<!-- SidemenuComponent -->
<g id="node3" class="node">
<title>SidemenuComponent</title>
<polygon fill="#ffffb3" stroke="black" points="351.82,-84.8 214.18,-84.8 214.18,-48.8 351.82,-48.8 351.82,-84.8"/>
<text text-anchor="middle" x="283" y="-62.6" font-family="Times,serif" font-size="14.00">SidemenuComponent</text>
</g>
<!-- SidemenuComponent&#45;&gt;DashboardModule -->
<g id="edge3" class="edge">
<title>SidemenuComponent&#45;&gt;DashboardModule</title>
<path fill="none" stroke="black" d="M323.78,-84.91C323.78,-84.91 323.78,-103.79 323.78,-103.79"/>
<polygon fill="black" stroke="black" points="320.28,-103.79 323.78,-113.79 327.28,-103.79 320.28,-103.79"/>
</g>
<!-- DashboardRoutingModule -->
<g id="node5" class="node">
<title>DashboardRoutingModule</title>
<polygon fill="#8dd3c7" stroke="black" points="189.82,-84.8 186.82,-88.8 165.82,-88.8 162.82,-84.8 24.18,-84.8 24.18,-48.8 189.82,-48.8 189.82,-84.8"/>
<text text-anchor="middle" x="107" y="-62.6" font-family="Times,serif" font-size="14.00">DashboardRoutingModule</text>
</g>
<!-- DashboardRoutingModule&#45;&gt;DashboardModule -->
<g id="edge4" class="edge">
<title>DashboardRoutingModule&#45;&gt;DashboardModule</title>
<path fill="none" stroke="black" d="M107,-84.91C107,-104.14 107,-131.8 107,-131.8 107,-131.8 285.72,-131.8 285.72,-131.8"/>
<polygon fill="black" stroke="black" points="285.72,-135.3 295.72,-131.8 285.72,-128.3 285.72,-135.3"/>
</g>
</g>
</svg>
