<?xml version="1.0" encoding="UTF-8" standalone="no"?>
<!DOCTYPE svg PUBLIC "-//W3C//DTD SVG 1.1//EN"
 "http://www.w3.org/Graphics/SVG/1.1/DTD/svg11.dtd">
<!-- Generated by graphviz version 5.0.0 (20220707.1540)
 -->
<!-- Title: dependencies Pages: 1 -->
<svg width="352pt" height="174pt"
 viewBox="0.00 0.00 352.00 173.80" xmlns="http://www.w3.org/2000/svg" xmlns:xlink="http://www.w3.org/1999/xlink">
<g id="graph0" class="graph" transform="scale(1 1) rotate(0) translate(4 169.8)">
<title>dependencies</title>
<polygon fill="white" stroke="transparent" points="-4,4 -4,-169.8 348,-169.8 348,4 -4,4"/>
<text text-anchor="middle" x="172" y="-8.2" font-family="sans-serif" font-size="14.00">dependencies</text>
<g id="clust1" class="cluster">
<title>cluster_UserModule</title>
<polygon fill="none" stroke="black" stroke-dasharray="1,5" points="8,-32.8 8,-157.8 336,-157.8 336,-32.8 8,-32.8"/>
</g>
<g id="clust4" class="cluster">
<title>cluster_UserModule_imports</title>
<polygon fill="none" stroke="black" points="180,-40.8 180,-92.8 328,-92.8 328,-40.8 180,-40.8"/>
</g>
<g id="clust2" class="cluster">
<title>cluster_UserModule_declarations</title>
<polygon fill="none" stroke="black" points="16,-40.8 16,-92.8 172,-92.8 172,-40.8 16,-40.8"/>
</g>
<!-- UserIndexComponent -->
<g id="node1" class="node">
<title>UserIndexComponent</title>
<polygon fill="#ffffb3" stroke="black" points="163.64,-84.8 24.36,-84.8 24.36,-48.8 163.64,-48.8 163.64,-84.8"/>
<text text-anchor="middle" x="94" y="-62.6" font-family="Times,serif" font-size="14.00">UserIndexComponent</text>
</g>
<!-- UserModule -->
<g id="node2" class="node">
<title>UserModule</title>
<polygon fill="#8dd3c7" stroke="black" points="216.99,-149.8 213.99,-153.8 192.99,-153.8 189.99,-149.8 131.01,-149.8 131.01,-113.8 216.99,-113.8 216.99,-149.8"/>
<text text-anchor="middle" x="174" y="-127.6" font-family="Times,serif" font-size="14.00">UserModule</text>
</g>
<!-- UserIndexComponent&#45;&gt;UserModule -->
<g id="edge1" class="edge">
<title>UserIndexComponent&#45;&gt;UserModule</title>
<path fill="none" stroke="black" d="M147.41,-84.91C147.41,-84.91 147.41,-103.79 147.41,-103.79"/>
<polygon fill="black" stroke="black" points="143.91,-103.79 147.41,-113.79 150.91,-103.79 143.91,-103.79"/>
</g>
<!-- UserRoutingModule -->
<g id="node3" class="node">
<title>UserRoutingModule</title>
<polygon fill="#8dd3c7" stroke="black" points="319.6,-84.8 316.6,-88.8 295.6,-88.8 292.6,-84.8 188.4,-84.8 188.4,-48.8 319.6,-48.8 319.6,-84.8"/>
<text text-anchor="middle" x="254" y="-62.6" font-family="Times,serif" font-size="14.00">UserRoutingModule</text>
</g>
<!-- UserRoutingModule&#45;&gt;UserModule -->
<g id="edge2" class="edge">
<title>UserRoutingModule&#45;&gt;UserModule</title>
<path fill="none" stroke="black" d="M202.72,-84.91C202.72,-84.91 202.72,-103.79 202.72,-103.79"/>
<polygon fill="black" stroke="black" points="199.22,-103.79 202.72,-113.79 206.22,-103.79 199.22,-103.79"/>
</g>
</g>
</svg>
