<?xml version="1.0" encoding="UTF-8" standalone="no"?>
<!DOCTYPE svg PUBLIC "-//W3C//DTD SVG 1.1//EN"
 "http://www.w3.org/Graphics/SVG/1.1/DTD/svg11.dtd">
<!-- Generated by graphviz version 5.0.0 (20220707.1540)
 -->
<!-- Title: dependencies Pages: 1 -->
<svg width="436pt" height="174pt"
 viewBox="0.00 0.00 436.00 173.80" xmlns="http://www.w3.org/2000/svg" xmlns:xlink="http://www.w3.org/1999/xlink">
<g id="graph0" class="graph" transform="scale(1 1) rotate(0) translate(4 169.8)">
<title>dependencies</title>
<polygon fill="white" stroke="transparent" points="-4,4 -4,-169.8 432,-169.8 432,4 -4,4"/>
<text text-anchor="middle" x="214" y="-8.2" font-family="sans-serif" font-size="14.00">dependencies</text>
<g id="clust1" class="cluster">
<title>cluster_FreezerTypeModule</title>
<polygon fill="none" stroke="black" stroke-dasharray="1,5" points="8,-32.8 8,-157.8 420,-157.8 420,-32.8 8,-32.8"/>
</g>
<g id="clust4" class="cluster">
<title>cluster_FreezerTypeModule_imports</title>
<polygon fill="none" stroke="black" points="220,-40.8 220,-92.8 412,-92.8 412,-40.8 220,-40.8"/>
</g>
<g id="clust2" class="cluster">
<title>cluster_FreezerTypeModule_declarations</title>
<polygon fill="none" stroke="black" points="16,-40.8 16,-92.8 212,-92.8 212,-40.8 16,-40.8"/>
</g>
<!-- FreezertypeIndexComponent -->
<g id="node1" class="node">
<title>FreezertypeIndexComponent</title>
<polygon fill="#ffffb3" stroke="black" points="203.78,-84.8 24.22,-84.8 24.22,-48.8 203.78,-48.8 203.78,-84.8"/>
<text text-anchor="middle" x="114" y="-62.6" font-family="Times,serif" font-size="14.00">FreezertypeIndexComponent</text>
</g>
<!-- FreezerTypeModule -->
<g id="node2" class="node">
<title>FreezerTypeModule</title>
<polygon fill="#8dd3c7" stroke="black" points="280.28,-149.8 277.28,-153.8 256.28,-153.8 253.28,-149.8 149.72,-149.8 149.72,-113.8 280.28,-113.8 280.28,-149.8"/>
<text text-anchor="middle" x="215" y="-127.6" font-family="Times,serif" font-size="14.00">FreezerTypeModule</text>
</g>
<!-- FreezertypeIndexComponent&#45;&gt;FreezerTypeModule -->
<g id="edge1" class="edge">
<title>FreezertypeIndexComponent&#45;&gt;FreezerTypeModule</title>
<path fill="none" stroke="black" d="M176.75,-84.91C176.75,-84.91 176.75,-103.79 176.75,-103.79"/>
<polygon fill="black" stroke="black" points="173.25,-103.79 176.75,-113.79 180.25,-103.79 173.25,-103.79"/>
</g>
<!-- FreezerTypeRoutingModule -->
<g id="node3" class="node">
<title>FreezerTypeRoutingModule</title>
<polygon fill="#8dd3c7" stroke="black" points="403.9,-84.8 400.9,-88.8 379.9,-88.8 376.9,-84.8 228.1,-84.8 228.1,-48.8 403.9,-48.8 403.9,-84.8"/>
<text text-anchor="middle" x="316" y="-62.6" font-family="Times,serif" font-size="14.00">FreezerTypeRoutingModule</text>
</g>
<!-- FreezerTypeRoutingModule&#45;&gt;FreezerTypeModule -->
<g id="edge2" class="edge">
<title>FreezerTypeRoutingModule&#45;&gt;FreezerTypeModule</title>
<path fill="none" stroke="black" d="M254.22,-84.91C254.22,-84.91 254.22,-103.79 254.22,-103.79"/>
<polygon fill="black" stroke="black" points="250.72,-103.79 254.22,-113.79 257.72,-103.79 250.72,-103.79"/>
</g>
</g>
</svg>
