<?xml version="1.0" encoding="UTF-8" standalone="no"?>
<!DOCTYPE svg PUBLIC "-//W3C//DTD SVG 1.1//EN"
 "http://www.w3.org/Graphics/SVG/1.1/DTD/svg11.dtd">
<!-- Generated by graphviz version 5.0.0 (20220707.1540)
 -->
<!-- Title: dependencies Pages: 1 -->
<svg width="382pt" height="174pt"
 viewBox="0.00 0.00 382.00 173.80" xmlns="http://www.w3.org/2000/svg" xmlns:xlink="http://www.w3.org/1999/xlink">
<g id="graph0" class="graph" transform="scale(1 1) rotate(0) translate(4 169.8)">
<title>dependencies</title>
<polygon fill="white" stroke="transparent" points="-4,4 -4,-169.8 378,-169.8 378,4 -4,4"/>
<text text-anchor="middle" x="187" y="-8.2" font-family="sans-serif" font-size="14.00">dependencies</text>
<g id="clust1" class="cluster">
<title>cluster_FreezerModule</title>
<polygon fill="none" stroke="black" stroke-dasharray="1,5" points="8,-32.8 8,-157.8 366,-157.8 366,-32.8 8,-32.8"/>
</g>
<g id="clust2" class="cluster">
<title>cluster_FreezerModule_declarations</title>
<polygon fill="none" stroke="black" points="186,-40.8 186,-92.8 358,-92.8 358,-40.8 186,-40.8"/>
</g>
<g id="clust4" class="cluster">
<title>cluster_FreezerModule_imports</title>
<polygon fill="none" stroke="black" points="16,-40.8 16,-92.8 178,-92.8 178,-40.8 16,-40.8"/>
</g>
<!-- FreezerIndexComponent -->
<g id="node1" class="node">
<title>FreezerIndexComponent</title>
<polygon fill="#ffffb3" stroke="black" points="349.67,-84.8 194.33,-84.8 194.33,-48.8 349.67,-48.8 349.67,-84.8"/>
<text text-anchor="middle" x="272" y="-62.6" font-family="Times,serif" font-size="14.00">FreezerIndexComponent</text>
</g>
<!-- FreezerModule -->
<g id="node2" class="node">
<title>FreezerModule</title>
<polygon fill="#8dd3c7" stroke="black" points="234.52,-149.8 231.52,-153.8 210.52,-153.8 207.52,-149.8 133.48,-149.8 133.48,-113.8 234.52,-113.8 234.52,-149.8"/>
<text text-anchor="middle" x="184" y="-127.6" font-family="Times,serif" font-size="14.00">FreezerModule</text>
</g>
<!-- FreezerIndexComponent&#45;&gt;FreezerModule -->
<g id="edge1" class="edge">
<title>FreezerIndexComponent&#45;&gt;FreezerModule</title>
<path fill="none" stroke="black" d="M214.59,-84.91C214.59,-84.91 214.59,-103.79 214.59,-103.79"/>
<polygon fill="black" stroke="black" points="211.09,-103.79 214.59,-113.79 218.09,-103.79 211.09,-103.79"/>
</g>
<!-- FreezerRoutingModule -->
<g id="node3" class="node">
<title>FreezerRoutingModule</title>
<polygon fill="#8dd3c7" stroke="black" points="170.14,-84.8 167.14,-88.8 146.14,-88.8 143.14,-84.8 23.86,-84.8 23.86,-48.8 170.14,-48.8 170.14,-84.8"/>
<text text-anchor="middle" x="97" y="-62.6" font-family="Times,serif" font-size="14.00">FreezerRoutingModule</text>
</g>
<!-- FreezerRoutingModule&#45;&gt;FreezerModule -->
<g id="edge2" class="edge">
<title>FreezerRoutingModule&#45;&gt;FreezerModule</title>
<path fill="none" stroke="black" d="M151.78,-84.91C151.78,-84.91 151.78,-103.79 151.78,-103.79"/>
<polygon fill="black" stroke="black" points="148.28,-103.79 151.78,-113.79 155.28,-103.79 148.28,-103.79"/>
</g>
</g>
</svg>
