<?xml version="1.0" encoding="UTF-8" standalone="no"?>
<!DOCTYPE svg PUBLIC "-//W3C//DTD SVG 1.1//EN"
 "http://www.w3.org/Graphics/SVG/1.1/DTD/svg11.dtd">
<!-- Generated by graphviz version 5.0.0 (20220707.1540)
 -->
<!-- Title: dependencies Pages: 1 -->
<svg width="384pt" height="174pt"
 viewBox="0.00 0.00 384.00 173.80" xmlns="http://www.w3.org/2000/svg" xmlns:xlink="http://www.w3.org/1999/xlink">
<g id="graph0" class="graph" transform="scale(1 1) rotate(0) translate(4 169.8)">
<title>dependencies</title>
<polygon fill="white" stroke="transparent" points="-4,4 -4,-169.8 380,-169.8 380,4 -4,4"/>
<text text-anchor="middle" x="188" y="-8.2" font-family="sans-serif" font-size="14.00">dependencies</text>
<g id="clust1" class="cluster">
<title>cluster_ProductModule</title>
<polygon fill="none" stroke="black" stroke-dasharray="1,5" points="8,-32.8 8,-157.8 368,-157.8 368,-32.8 8,-32.8"/>
</g>
<g id="clust4" class="cluster">
<title>cluster_ProductModule_imports</title>
<polygon fill="none" stroke="black" points="196,-40.8 196,-92.8 360,-92.8 360,-40.8 196,-40.8"/>
</g>
<g id="clust2" class="cluster">
<title>cluster_ProductModule_declarations</title>
<polygon fill="none" stroke="black" points="16,-40.8 16,-92.8 188,-92.8 188,-40.8 16,-40.8"/>
</g>
<!-- ProductIndexComponent -->
<g id="node1" class="node">
<title>ProductIndexComponent</title>
<polygon fill="#ffffb3" stroke="black" points="180.26,-84.8 23.74,-84.8 23.74,-48.8 180.26,-48.8 180.26,-84.8"/>
<text text-anchor="middle" x="102" y="-62.6" font-family="Times,serif" font-size="14.00">ProductIndexComponent</text>
</g>
<!-- ProductModule -->
<g id="node2" class="node">
<title>ProductModule</title>
<polygon fill="#8dd3c7" stroke="black" points="241.6,-149.8 238.6,-153.8 217.6,-153.8 214.6,-149.8 138.4,-149.8 138.4,-113.8 241.6,-113.8 241.6,-149.8"/>
<text text-anchor="middle" x="190" y="-127.6" font-family="Times,serif" font-size="14.00">ProductModule</text>
</g>
<!-- ProductIndexComponent&#45;&gt;ProductModule -->
<g id="edge1" class="edge">
<title>ProductIndexComponent&#45;&gt;ProductModule</title>
<path fill="none" stroke="black" d="M159.41,-84.91C159.41,-84.91 159.41,-103.79 159.41,-103.79"/>
<polygon fill="black" stroke="black" points="155.91,-103.79 159.41,-113.79 162.91,-103.79 155.91,-103.79"/>
</g>
<!-- ProductRoutingModule -->
<g id="node3" class="node">
<title>ProductRoutingModule</title>
<polygon fill="#8dd3c7" stroke="black" points="352.22,-84.8 349.22,-88.8 328.22,-88.8 325.22,-84.8 203.78,-84.8 203.78,-48.8 352.22,-48.8 352.22,-84.8"/>
<text text-anchor="middle" x="278" y="-62.6" font-family="Times,serif" font-size="14.00">ProductRoutingModule</text>
</g>
<!-- ProductRoutingModule&#45;&gt;ProductModule -->
<g id="edge2" class="edge">
<title>ProductRoutingModule&#45;&gt;ProductModule</title>
<path fill="none" stroke="black" d="M222.72,-84.91C222.72,-84.91 222.72,-103.79 222.72,-103.79"/>
<polygon fill="black" stroke="black" points="219.22,-103.79 222.72,-113.79 226.22,-103.79 219.22,-103.79"/>
</g>
</g>
</svg>
