<?xml version="1.0" encoding="UTF-8" standalone="no"?>
<!DOCTYPE svg PUBLIC "-//W3C//DTD SVG 1.1//EN"
 "http://www.w3.org/Graphics/SVG/1.1/DTD/svg11.dtd">
<!-- Generated by graphviz version 5.0.0 (20220707.1540)
 -->
<!-- Title: dependencies Pages: 1 -->
<svg width="3436pt" height="247pt"
 viewBox="0.00 0.00 3436.00 246.80" xmlns="http://www.w3.org/2000/svg" xmlns:xlink="http://www.w3.org/1999/xlink">
<g id="graph0" class="graph" transform="scale(1 1) rotate(0) translate(4 242.8)">
<title>dependencies</title>
<polygon fill="white" stroke="transparent" points="-4,4 -4,-242.8 3432,-242.8 3432,4 -4,4"/>
<text text-anchor="middle" x="1714" y="-8.2" font-family="sans-serif" font-size="14.00">dependencies</text>
<g id="clust29" class="cluster">
<title>cluster_DashboardModule</title>
<polygon fill="none" stroke="black" stroke-dasharray="1,5" points="872,-32.8 872,-157.8 1510,-157.8 1510,-32.8 872,-32.8"/>
</g>
<g id="clust30" class="cluster">
<title>cluster_DashboardModule_declarations</title>
<polygon fill="none" stroke="black" points="1070,-40.8 1070,-92.8 1502,-92.8 1502,-40.8 1070,-40.8"/>
</g>
<g id="clust34" class="cluster">
<title>cluster_DashboardModule_imports</title>
<polygon fill="none" stroke="black" points="880,-40.8 880,-92.8 1062,-92.8 1062,-40.8 880,-40.8"/>
</g>
<g id="clust96" class="cluster">
<title>cluster_UserModule</title>
<polygon fill="none" stroke="black" stroke-dasharray="1,5" points="3092,-32.8 3092,-157.8 3420,-157.8 3420,-32.8 3092,-32.8"/>
</g>
<g id="clust97" class="cluster">
<title>cluster_UserModule_declarations</title>
<polygon fill="none" stroke="black" points="3256,-40.8 3256,-92.8 3412,-92.8 3412,-40.8 3256,-40.8"/>
</g>
<g id="clust99" class="cluster">
<title>cluster_UserModule_imports</title>
<polygon fill="none" stroke="black" points="3100,-40.8 3100,-92.8 3248,-92.8 3248,-40.8 3100,-40.8"/>
</g>
<g id="clust1" class="cluster">
<title>cluster_AppModule</title>
<polygon fill="none" stroke="black" stroke-dasharray="1,5" points="8,-32.8 8,-230.8 426,-230.8 426,-32.8 8,-32.8"/>
</g>
<g id="clust2" class="cluster">
<title>cluster_AppModule_declarations</title>
<polygon fill="none" stroke="black" points="168,-40.8 168,-92.8 418,-92.8 418,-40.8 168,-40.8"/>
</g>
<g id="clust5" class="cluster">
<title>cluster_AppModule_imports</title>
<polygon fill="none" stroke="black" points="16,-40.8 16,-92.8 160,-92.8 160,-40.8 16,-40.8"/>
</g>
<g id="clust7" class="cluster">
<title>cluster_AppModule_bootstrap</title>
<polygon fill="none" stroke="black" points="169,-170.8 169,-222.8 293,-222.8 293,-170.8 169,-170.8"/>
</g>
<g id="clust57" class="cluster">
<title>cluster_FreezerTypeModule</title>
<polygon fill="none" stroke="black" stroke-dasharray="1,5" points="1884,-32.8 1884,-157.8 2296,-157.8 2296,-32.8 1884,-32.8"/>
</g>
<g id="clust58" class="cluster">
<title>cluster_FreezerTypeModule_declarations</title>
<polygon fill="none" stroke="black" points="2092,-40.8 2092,-92.8 2288,-92.8 2288,-40.8 2092,-40.8"/>
</g>
<g id="clust60" class="cluster">
<title>cluster_FreezerTypeModule_imports</title>
<polygon fill="none" stroke="black" points="1892,-40.8 1892,-92.8 2084,-92.8 2084,-40.8 1892,-40.8"/>
</g>
<g id="clust44" class="cluster">
<title>cluster_FreezerModule</title>
<polygon fill="none" stroke="black" stroke-dasharray="1,5" points="1518,-32.8 1518,-157.8 1876,-157.8 1876,-32.8 1518,-32.8"/>
</g>
<g id="clust45" class="cluster">
<title>cluster_FreezerModule_declarations</title>
<polygon fill="none" stroke="black" points="1696,-40.8 1696,-92.8 1868,-92.8 1868,-40.8 1696,-40.8"/>
</g>
<g id="clust47" class="cluster">
<title>cluster_FreezerModule_imports</title>
<polygon fill="none" stroke="black" points="1526,-40.8 1526,-92.8 1688,-92.8 1688,-40.8 1526,-40.8"/>
</g>
<g id="clust83" class="cluster">
<title>cluster_ProductTypeModule</title>
<polygon fill="none" stroke="black" stroke-dasharray="1,5" points="2672,-32.8 2672,-157.8 3084,-157.8 3084,-32.8 2672,-32.8"/>
</g>
<g id="clust84" class="cluster">
<title>cluster_ProductTypeModule_declarations</title>
<polygon fill="none" stroke="black" points="2880,-40.8 2880,-92.8 3076,-92.8 3076,-40.8 2880,-40.8"/>
</g>
<g id="clust86" class="cluster">
<title>cluster_ProductTypeModule_imports</title>
<polygon fill="none" stroke="black" points="2680,-40.8 2680,-92.8 2872,-92.8 2872,-40.8 2680,-40.8"/>
</g>
<g id="clust70" class="cluster">
<title>cluster_ProductModule</title>
<polygon fill="none" stroke="black" stroke-dasharray="1,5" points="2304,-32.8 2304,-157.8 2664,-157.8 2664,-32.8 2304,-32.8"/>
</g>
<g id="clust71" class="cluster">
<title>cluster_ProductModule_declarations</title>
<polygon fill="none" stroke="black" points="2484,-40.8 2484,-92.8 2656,-92.8 2656,-40.8 2484,-40.8"/>
</g>
<g id="clust73" class="cluster">
<title>cluster_ProductModule_imports</title>
<polygon fill="none" stroke="black" points="2312,-40.8 2312,-92.8 2476,-92.8 2476,-40.8 2312,-40.8"/>
</g>
<g id="clust15" class="cluster">
<title>cluster_AuthModule</title>
<polygon fill="none" stroke="black" stroke-dasharray="1,5" points="434,-32.8 434,-157.8 864,-157.8 864,-32.8 434,-32.8"/>
</g>
<g id="clust16" class="cluster">
<title>cluster_AuthModule_declarations</title>
<polygon fill="none" stroke="black" points="598,-40.8 598,-92.8 856,-92.8 856,-40.8 598,-40.8"/>
</g>
<g id="clust19" class="cluster">
<title>cluster_AuthModule_imports</title>
<polygon fill="none" stroke="black" points="442,-40.8 442,-92.8 590,-92.8 590,-40.8 442,-40.8"/>
</g>
<!-- AppComponent -->
<g id="node1" class="node">
<title>AppComponent</title>
<polygon fill="#ffffb3" stroke="black" points="409.94,-84.8 304.06,-84.8 304.06,-48.8 409.94,-48.8 409.94,-84.8"/>
<text text-anchor="middle" x="357" y="-62.6" font-family="Times,serif" font-size="14.00">AppComponent</text>
</g>
<!-- AppModule -->
<g id="node3" class="node">
<title>AppModule</title>
<polygon fill="#8dd3c7" stroke="black" points="272.66,-149.8 269.66,-153.8 248.66,-153.8 245.66,-149.8 189.34,-149.8 189.34,-113.8 272.66,-113.8 272.66,-149.8"/>
<text text-anchor="middle" x="231" y="-127.6" font-family="Times,serif" font-size="14.00">AppModule</text>
</g>
<!-- AppComponent&#45;&gt;AppModule -->
<g id="edge1" class="edge">
<title>AppComponent&#45;&gt;AppModule</title>
<path fill="none" stroke="black" d="M357,-85.08C357,-106.12 357,-137.8 357,-137.8 357,-137.8 282.96,-137.8 282.96,-137.8"/>
<polygon fill="black" stroke="black" points="282.96,-134.3 272.96,-137.8 282.96,-141.3 282.96,-134.3"/>
</g>
<!-- ErrorComponent -->
<g id="node2" class="node">
<title>ErrorComponent</title>
<polygon fill="#ffffb3" stroke="black" points="286.37,-84.8 175.63,-84.8 175.63,-48.8 286.37,-48.8 286.37,-84.8"/>
<text text-anchor="middle" x="231" y="-62.6" font-family="Times,serif" font-size="14.00">ErrorComponent</text>
</g>
<!-- ErrorComponent&#45;&gt;AppModule -->
<g id="edge2" class="edge">
<title>ErrorComponent&#45;&gt;AppModule</title>
<path fill="none" stroke="black" d="M231,-84.91C231,-84.91 231,-103.79 231,-103.79"/>
<polygon fill="black" stroke="black" points="227.5,-103.79 231,-113.79 234.5,-103.79 227.5,-103.79"/>
</g>
<!-- AppComponent  -->
<g id="node5" class="node">
<title>AppComponent </title>
<polygon fill="#80b1d3" stroke="black" points="285.44,-214.8 176.56,-214.8 176.56,-178.8 285.44,-178.8 285.44,-214.8"/>
<text text-anchor="middle" x="231" y="-192.6" font-family="Times,serif" font-size="14.00">AppComponent </text>
</g>
<!-- AppModule&#45;&gt;AppComponent  -->
<g id="edge4" class="edge">
<title>AppModule&#45;&gt;AppComponent </title>
<path fill="none" stroke="black" stroke-dasharray="1,5" d="M231,-149.91C231,-149.91 231,-168.79 231,-168.79"/>
<polygon fill="black" stroke="black" points="227.5,-168.79 231,-178.79 234.5,-168.79 227.5,-168.79"/>
</g>
<!-- AppRoutingModule -->
<g id="node4" class="node">
<title>AppRoutingModule</title>
<polygon fill="#8dd3c7" stroke="black" points="152.28,-84.8 149.28,-88.8 128.28,-88.8 125.28,-84.8 23.72,-84.8 23.72,-48.8 152.28,-48.8 152.28,-84.8"/>
<text text-anchor="middle" x="88" y="-62.6" font-family="Times,serif" font-size="14.00">AppRoutingModule</text>
</g>
<!-- AppRoutingModule&#45;&gt;AppModule -->
<g id="edge3" class="edge">
<title>AppRoutingModule&#45;&gt;AppModule</title>
<path fill="none" stroke="black" d="M88,-84.91C88,-104.14 88,-131.8 88,-131.8 88,-131.8 179.25,-131.8 179.25,-131.8"/>
<polygon fill="black" stroke="black" points="179.25,-135.3 189.25,-131.8 179.25,-128.3 179.25,-135.3"/>
</g>
<!-- AlertComponent -->
<g id="node6" class="node">
<title>AlertComponent</title>
<polygon fill="#ffffb3" stroke="black" points="848.1,-84.8 737.9,-84.8 737.9,-48.8 848.1,-48.8 848.1,-84.8"/>
<text text-anchor="middle" x="793" y="-62.6" font-family="Times,serif" font-size="14.00">AlertComponent</text>
</g>
<!-- AuthModule -->
<g id="node8" class="node">
<title>AuthModule</title>
<polygon fill="#8dd3c7" stroke="black" points="706.55,-149.8 703.55,-153.8 682.55,-153.8 679.55,-149.8 619.45,-149.8 619.45,-113.8 706.55,-113.8 706.55,-149.8"/>
<text text-anchor="middle" x="663" y="-127.6" font-family="Times,serif" font-size="14.00">AuthModule</text>
</g>
<!-- AlertComponent&#45;&gt;AuthModule -->
<g id="edge5" class="edge">
<title>AlertComponent&#45;&gt;AuthModule</title>
<path fill="none" stroke="black" d="M793,-85.08C793,-106.12 793,-137.8 793,-137.8 793,-137.8 716.65,-137.8 716.65,-137.8"/>
<polygon fill="black" stroke="black" points="716.65,-134.3 706.65,-137.8 716.65,-141.3 716.65,-134.3"/>
</g>
<!-- LoginComponent -->
<g id="node7" class="node">
<title>LoginComponent</title>
<polygon fill="#ffffb3" stroke="black" points="720.27,-84.8 605.73,-84.8 605.73,-48.8 720.27,-48.8 720.27,-84.8"/>
<text text-anchor="middle" x="663" y="-62.6" font-family="Times,serif" font-size="14.00">LoginComponent</text>
</g>
<!-- LoginComponent&#45;&gt;AuthModule -->
<g id="edge6" class="edge">
<title>LoginComponent&#45;&gt;AuthModule</title>
<path fill="none" stroke="black" d="M663,-84.91C663,-84.91 663,-103.79 663,-103.79"/>
<polygon fill="black" stroke="black" points="659.5,-103.79 663,-113.79 666.5,-103.79 659.5,-103.79"/>
</g>
<!-- AuthRoutingModule -->
<g id="node9" class="node">
<title>AuthRoutingModule</title>
<polygon fill="#8dd3c7" stroke="black" points="582.17,-84.8 579.17,-88.8 558.17,-88.8 555.17,-84.8 449.83,-84.8 449.83,-48.8 582.17,-48.8 582.17,-84.8"/>
<text text-anchor="middle" x="516" y="-62.6" font-family="Times,serif" font-size="14.00">AuthRoutingModule</text>
</g>
<!-- AuthRoutingModule&#45;&gt;AuthModule -->
<g id="edge7" class="edge">
<title>AuthRoutingModule&#45;&gt;AuthModule</title>
<path fill="none" stroke="black" d="M516,-84.82C516,-102.17 516,-125.8 516,-125.8 516,-125.8 609.29,-125.8 609.29,-125.8"/>
<polygon fill="black" stroke="black" points="609.29,-129.3 619.29,-125.8 609.29,-122.3 609.29,-129.3"/>
</g>
<!-- HeaderComponent -->
<g id="node10" class="node">
<title>HeaderComponent</title>
<polygon fill="#ffffb3" stroke="black" points="1493.75,-84.8 1372.25,-84.8 1372.25,-48.8 1493.75,-48.8 1493.75,-84.8"/>
<text text-anchor="middle" x="1433" y="-62.6" font-family="Times,serif" font-size="14.00">HeaderComponent</text>
</g>
<!-- DashboardModule -->
<g id="node13" class="node">
<title>DashboardModule</title>
<polygon fill="#8dd3c7" stroke="black" points="1280.2,-149.8 1277.2,-153.8 1256.2,-153.8 1253.2,-149.8 1159.8,-149.8 1159.8,-113.8 1280.2,-113.8 1280.2,-149.8"/>
<text text-anchor="middle" x="1220" y="-127.6" font-family="Times,serif" font-size="14.00">DashboardModule</text>
</g>
<!-- HeaderComponent&#45;&gt;DashboardModule -->
<g id="edge8" class="edge">
<title>HeaderComponent&#45;&gt;DashboardModule</title>
<path fill="none" stroke="black" d="M1433,-84.91C1433,-104.14 1433,-131.8 1433,-131.8 1433,-131.8 1290.18,-131.8 1290.18,-131.8"/>
<polygon fill="black" stroke="black" points="1290.18,-128.3 1280.18,-131.8 1290.18,-135.3 1290.18,-128.3"/>
</g>
<!-- LayoutComponent -->
<g id="node11" class="node">
<title>LayoutComponent</title>
<polygon fill="#ffffb3" stroke="black" points="1354.49,-84.8 1233.51,-84.8 1233.51,-48.8 1354.49,-48.8 1354.49,-84.8"/>
<text text-anchor="middle" x="1294" y="-62.6" font-family="Times,serif" font-size="14.00">LayoutComponent</text>
</g>
<!-- LayoutComponent&#45;&gt;DashboardModule -->
<g id="edge9" class="edge">
<title>LayoutComponent&#45;&gt;DashboardModule</title>
<path fill="none" stroke="black" d="M1256.8,-84.91C1256.8,-84.91 1256.8,-103.79 1256.8,-103.79"/>
<polygon fill="black" stroke="black" points="1253.3,-103.79 1256.8,-113.79 1260.3,-103.79 1253.3,-103.79"/>
</g>
<!-- SidemenuComponent -->
<g id="node12" class="node">
<title>SidemenuComponent</title>
<polygon fill="#ffffb3" stroke="black" points="1215.82,-84.8 1078.18,-84.8 1078.18,-48.8 1215.82,-48.8 1215.82,-84.8"/>
<text text-anchor="middle" x="1147" y="-62.6" font-family="Times,serif" font-size="14.00">SidemenuComponent</text>
</g>
<!-- SidemenuComponent&#45;&gt;DashboardModule -->
<g id="edge10" class="edge">
<title>SidemenuComponent&#45;&gt;DashboardModule</title>
<path fill="none" stroke="black" d="M1187.78,-84.91C1187.78,-84.91 1187.78,-103.79 1187.78,-103.79"/>
<polygon fill="black" stroke="black" points="1184.28,-103.79 1187.78,-113.79 1191.28,-103.79 1184.28,-103.79"/>
</g>
<!-- DashboardRoutingModule -->
<g id="node14" class="node">
<title>DashboardRoutingModule</title>
<polygon fill="#8dd3c7" stroke="black" points="1053.82,-84.8 1050.82,-88.8 1029.82,-88.8 1026.82,-84.8 888.18,-84.8 888.18,-48.8 1053.82,-48.8 1053.82,-84.8"/>
<text text-anchor="middle" x="971" y="-62.6" font-family="Times,serif" font-size="14.00">DashboardRoutingModule</text>
</g>
<!-- DashboardRoutingModule&#45;&gt;DashboardModule -->
<g id="edge11" class="edge">
<title>DashboardRoutingModule&#45;&gt;DashboardModule</title>
<path fill="none" stroke="black" d="M971,-84.82C971,-102.17 971,-125.8 971,-125.8 971,-125.8 1149.72,-125.8 1149.72,-125.8"/>
<polygon fill="black" stroke="black" points="1149.72,-129.3 1159.72,-125.8 1149.72,-122.3 1149.72,-129.3"/>
</g>
<!-- FreezerIndexComponent -->
<g id="node15" class="node">
<title>FreezerIndexComponent</title>
<polygon fill="#ffffb3" stroke="black" points="1859.67,-84.8 1704.33,-84.8 1704.33,-48.8 1859.67,-48.8 1859.67,-84.8"/>
<text text-anchor="middle" x="1782" y="-62.6" font-family="Times,serif" font-size="14.00">FreezerIndexComponent</text>
</g>
<!-- FreezerModule -->
<g id="node16" class="node">
<title>FreezerModule</title>
<polygon fill="#8dd3c7" stroke="black" points="1744.52,-149.8 1741.52,-153.8 1720.52,-153.8 1717.52,-149.8 1643.48,-149.8 1643.48,-113.8 1744.52,-113.8 1744.52,-149.8"/>
<text text-anchor="middle" x="1694" y="-127.6" font-family="Times,serif" font-size="14.00">FreezerModule</text>
</g>
<!-- FreezerIndexComponent&#45;&gt;FreezerModule -->
<g id="edge12" class="edge">
<title>FreezerIndexComponent&#45;&gt;FreezerModule</title>
<path fill="none" stroke="black" d="M1724.59,-84.91C1724.59,-84.91 1724.59,-103.79 1724.59,-103.79"/>
<polygon fill="black" stroke="black" points="1721.09,-103.79 1724.59,-113.79 1728.09,-103.79 1721.09,-103.79"/>
</g>
<!-- FreezerRoutingModule -->
<g id="node17" class="node">
<title>FreezerRoutingModule</title>
<polygon fill="#8dd3c7" stroke="black" points="1680.14,-84.8 1677.14,-88.8 1656.14,-88.8 1653.14,-84.8 1533.86,-84.8 1533.86,-48.8 1680.14,-48.8 1680.14,-84.8"/>
<text text-anchor="middle" x="1607" y="-62.6" font-family="Times,serif" font-size="14.00">FreezerRoutingModule</text>
</g>
<!-- FreezerRoutingModule&#45;&gt;FreezerModule -->
<g id="edge13" class="edge">
<title>FreezerRoutingModule&#45;&gt;FreezerModule</title>
<path fill="none" stroke="black" d="M1661.78,-84.91C1661.78,-84.91 1661.78,-103.79 1661.78,-103.79"/>
<polygon fill="black" stroke="black" points="1658.28,-103.79 1661.78,-113.79 1665.28,-103.79 1658.28,-103.79"/>
</g>
<!-- FreezertypeIndexComponent -->
<g id="node18" class="node">
<title>FreezertypeIndexComponent</title>
<polygon fill="#ffffb3" stroke="black" points="2279.78,-84.8 2100.22,-84.8 2100.22,-48.8 2279.78,-48.8 2279.78,-84.8"/>
<text text-anchor="middle" x="2190" y="-62.6" font-family="Times,serif" font-size="14.00">FreezertypeIndexComponent</text>
</g>
<!-- FreezerTypeModule -->
<g id="node19" class="node">
<title>FreezerTypeModule</title>
<polygon fill="#8dd3c7" stroke="black" points="2154.28,-149.8 2151.28,-153.8 2130.28,-153.8 2127.28,-149.8 2023.72,-149.8 2023.72,-113.8 2154.28,-113.8 2154.28,-149.8"/>
<text text-anchor="middle" x="2089" y="-127.6" font-family="Times,serif" font-size="14.00">FreezerTypeModule</text>
</g>
<!-- FreezertypeIndexComponent&#45;&gt;FreezerTypeModule -->
<g id="edge14" class="edge">
<title>FreezertypeIndexComponent&#45;&gt;FreezerTypeModule</title>
<path fill="none" stroke="black" d="M2127.25,-84.91C2127.25,-84.91 2127.25,-103.79 2127.25,-103.79"/>
<polygon fill="black" stroke="black" points="2123.75,-103.79 2127.25,-113.79 2130.75,-103.79 2123.75,-103.79"/>
</g>
<!-- FreezerTypeRoutingModule -->
<g id="node20" class="node">
<title>FreezerTypeRoutingModule</title>
<polygon fill="#8dd3c7" stroke="black" points="2075.9,-84.8 2072.9,-88.8 2051.9,-88.8 2048.9,-84.8 1900.1,-84.8 1900.1,-48.8 2075.9,-48.8 2075.9,-84.8"/>
<text text-anchor="middle" x="1988" y="-62.6" font-family="Times,serif" font-size="14.00">FreezerTypeRoutingModule</text>
</g>
<!-- FreezerTypeRoutingModule&#45;&gt;FreezerTypeModule -->
<g id="edge15" class="edge">
<title>FreezerTypeRoutingModule&#45;&gt;FreezerTypeModule</title>
<path fill="none" stroke="black" d="M2049.78,-84.91C2049.78,-84.91 2049.78,-103.79 2049.78,-103.79"/>
<polygon fill="black" stroke="black" points="2046.28,-103.79 2049.78,-113.79 2053.28,-103.79 2046.28,-103.79"/>
</g>
<!-- ProductIndexComponent -->
<g id="node21" class="node">
<title>ProductIndexComponent</title>
<polygon fill="#ffffb3" stroke="black" points="2648.26,-84.8 2491.74,-84.8 2491.74,-48.8 2648.26,-48.8 2648.26,-84.8"/>
<text text-anchor="middle" x="2570" y="-62.6" font-family="Times,serif" font-size="14.00">ProductIndexComponent</text>
</g>
<!-- ProductModule -->
<g id="node22" class="node">
<title>ProductModule</title>
<polygon fill="#8dd3c7" stroke="black" points="2533.6,-149.8 2530.6,-153.8 2509.6,-153.8 2506.6,-149.8 2430.4,-149.8 2430.4,-113.8 2533.6,-113.8 2533.6,-149.8"/>
<text text-anchor="middle" x="2482" y="-127.6" font-family="Times,serif" font-size="14.00">ProductModule</text>
</g>
<!-- ProductIndexComponent&#45;&gt;ProductModule -->
<g id="edge16" class="edge">
<title>ProductIndexComponent&#45;&gt;ProductModule</title>
<path fill="none" stroke="black" d="M2512.59,-84.91C2512.59,-84.91 2512.59,-103.79 2512.59,-103.79"/>
<polygon fill="black" stroke="black" points="2509.09,-103.79 2512.59,-113.79 2516.09,-103.79 2509.09,-103.79"/>
</g>
<!-- ProductRoutingModule -->
<g id="node23" class="node">
<title>ProductRoutingModule</title>
<polygon fill="#8dd3c7" stroke="black" points="2468.22,-84.8 2465.22,-88.8 2444.22,-88.8 2441.22,-84.8 2319.78,-84.8 2319.78,-48.8 2468.22,-48.8 2468.22,-84.8"/>
<text text-anchor="middle" x="2394" y="-62.6" font-family="Times,serif" font-size="14.00">ProductRoutingModule</text>
</g>
<!-- ProductRoutingModule&#45;&gt;ProductModule -->
<g id="edge17" class="edge">
<title>ProductRoutingModule&#45;&gt;ProductModule</title>
<path fill="none" stroke="black" d="M2449.28,-84.91C2449.28,-84.91 2449.28,-103.79 2449.28,-103.79"/>
<polygon fill="black" stroke="black" points="2445.78,-103.79 2449.28,-113.79 2452.78,-103.79 2445.78,-103.79"/>
</g>
<!-- ProducttypeIndexComponent -->
<g id="node24" class="node">
<title>ProducttypeIndexComponent</title>
<polygon fill="#ffffb3" stroke="black" points="3068.36,-84.8 2887.64,-84.8 2887.64,-48.8 3068.36,-48.8 3068.36,-84.8"/>
<text text-anchor="middle" x="2978" y="-62.6" font-family="Times,serif" font-size="14.00">ProducttypeIndexComponent</text>
</g>
<!-- ProductTypeModule -->
<g id="node25" class="node">
<title>ProductTypeModule</title>
<polygon fill="#8dd3c7" stroke="black" points="2942.87,-149.8 2939.87,-153.8 2918.87,-153.8 2915.87,-149.8 2811.13,-149.8 2811.13,-113.8 2942.87,-113.8 2942.87,-149.8"/>
<text text-anchor="middle" x="2877" y="-127.6" font-family="Times,serif" font-size="14.00">ProductTypeModule</text>
</g>
<!-- ProducttypeIndexComponent&#45;&gt;ProductTypeModule -->
<g id="edge18" class="edge">
<title>ProducttypeIndexComponent&#45;&gt;ProductTypeModule</title>
<path fill="none" stroke="black" d="M2915.25,-84.91C2915.25,-84.91 2915.25,-103.79 2915.25,-103.79"/>
<polygon fill="black" stroke="black" points="2911.75,-103.79 2915.25,-113.79 2918.75,-103.79 2911.75,-103.79"/>
</g>
<!-- ProductTypeRoutingModule -->
<g id="node26" class="node">
<title>ProductTypeRoutingModule</title>
<polygon fill="#8dd3c7" stroke="black" points="2864.49,-84.8 2861.49,-88.8 2840.49,-88.8 2837.49,-84.8 2687.51,-84.8 2687.51,-48.8 2864.49,-48.8 2864.49,-84.8"/>
<text text-anchor="middle" x="2776" y="-62.6" font-family="Times,serif" font-size="14.00">ProductTypeRoutingModule</text>
</g>
<!-- ProductTypeRoutingModule&#45;&gt;ProductTypeModule -->
<g id="edge19" class="edge">
<title>ProductTypeRoutingModule&#45;&gt;ProductTypeModule</title>
<path fill="none" stroke="black" d="M2837.78,-84.91C2837.78,-84.91 2837.78,-103.79 2837.78,-103.79"/>
<polygon fill="black" stroke="black" points="2834.28,-103.79 2837.78,-113.79 2841.28,-103.79 2834.28,-103.79"/>
</g>
<!-- UserIndexComponent -->
<g id="node27" class="node">
<title>UserIndexComponent</title>
<polygon fill="#ffffb3" stroke="black" points="3403.64,-84.8 3264.36,-84.8 3264.36,-48.8 3403.64,-48.8 3403.64,-84.8"/>
<text text-anchor="middle" x="3334" y="-62.6" font-family="Times,serif" font-size="14.00">UserIndexComponent</text>
</g>
<!-- UserModule -->
<g id="node28" class="node">
<title>UserModule</title>
<polygon fill="#8dd3c7" stroke="black" points="3296.99,-149.8 3293.99,-153.8 3272.99,-153.8 3269.99,-149.8 3211.01,-149.8 3211.01,-113.8 3296.99,-113.8 3296.99,-149.8"/>
<text text-anchor="middle" x="3254" y="-127.6" font-family="Times,serif" font-size="14.00">UserModule</text>
</g>
<!-- UserIndexComponent&#45;&gt;UserModule -->
<g id="edge20" class="edge">
<title>UserIndexComponent&#45;&gt;UserModule</title>
<path fill="none" stroke="black" d="M3280.59,-84.91C3280.59,-84.91 3280.59,-103.79 3280.59,-103.79"/>
<polygon fill="black" stroke="black" points="3277.09,-103.79 3280.59,-113.79 3284.09,-103.79 3277.09,-103.79"/>
</g>
<!-- UserRoutingModule -->
<g id="node29" class="node">
<title>UserRoutingModule</title>
<polygon fill="#8dd3c7" stroke="black" points="3239.6,-84.8 3236.6,-88.8 3215.6,-88.8 3212.6,-84.8 3108.4,-84.8 3108.4,-48.8 3239.6,-48.8 3239.6,-84.8"/>
<text text-anchor="middle" x="3174" y="-62.6" font-family="Times,serif" font-size="14.00">UserRoutingModule</text>
</g>
<!-- UserRoutingModule&#45;&gt;UserModule -->
<g id="edge21" class="edge">
<title>UserRoutingModule&#45;&gt;UserModule</title>
<path fill="none" stroke="black" d="M3225.28,-84.91C3225.28,-84.91 3225.28,-103.79 3225.28,-103.79"/>
<polygon fill="black" stroke="black" points="3221.78,-103.79 3225.28,-113.79 3228.78,-103.79 3221.78,-103.79"/>
</g>
</g>
</svg>
